<svg width="181" height="24" viewBox="0 0 181 24" fill="none" xmlns="http://www.w3.org/2000/svg">
<path d="M18.1934 13.5146C17.3865 18.2123 14.1217 22.3102 9.84961 23.6885C9.82685 23.6959 9.80322 23.7014 9.78027 23.708C10.297 21.1059 11.265 18.0903 13.0771 16.2666C14.3719 14.9637 16.2714 14.0947 18.1934 13.5146ZM0.195312 13.5146C2.11699 14.0947 4.01604 14.9639 5.31055 16.2666C7.12247 18.09 8.08971 21.1052 8.60645 23.707C8.5842 23.7006 8.56114 23.6957 8.53906 23.6885C4.26805 22.3105 1.00317 18.2057 0.195312 13.5146ZM8.6084 1C8.09219 3.60406 7.1247 6.62436 5.31055 8.4502C3.9723 9.79691 1.98753 10.6792 0 11.2588V5.84082C6.23086e-05 4.87058 0.597894 4.01554 1.49414 3.66895L8.38965 1.07031C8.46145 1.04305 8.53469 1.01966 8.6084 1ZM9.78027 1.00781C9.85394 1.02869 9.92727 1.0522 9.99902 1.08105L16.8945 3.68066C17.7907 4.01573 18.3886 4.88215 18.3887 5.84082V11.2588C16.4008 10.6792 14.4156 9.79711 13.0771 8.4502C11.2648 6.62616 10.2969 3.61013 9.78027 1.00781Z" fill="#0897FF"/>
<path d="M27.6287 23.3535V0.953514H37.8687C39.9167 0.953514 41.6767 1.28418 43.1487 1.94551C44.642 2.60685 45.794 3.56685 46.6047 4.82551C47.4153 6.06285 47.8207 7.53485 47.8207 9.24152C47.8207 10.9268 47.4153 12.3882 46.6047 13.6255C45.794 14.8628 44.642 15.8228 43.1487 16.5055C41.6767 17.1668 39.9167 17.4975 37.8687 17.4975H31.1487L33.9647 14.7455V23.3535H27.6287ZM33.9647 15.4175L31.1487 12.5055H37.4847C38.8073 12.5055 39.7887 12.2175 40.4287 11.6415C41.09 11.0655 41.4207 10.2655 41.4207 9.24152C41.4207 8.19618 41.09 7.38552 40.4287 6.80951C39.7887 6.23351 38.8073 5.94551 37.4847 5.94551H31.1487L33.9647 3.03351V15.4175ZM48.0299 23.3535V0.953514H58.2699C60.3179 0.953514 62.0779 1.28418 63.5499 1.94551C65.0433 2.60685 66.1953 3.56685 67.0059 4.82551C67.8166 6.06285 68.2219 7.53485 68.2219 9.24152C68.2219 10.9268 67.8166 12.3882 67.0059 13.6255C66.1953 14.8415 65.0433 15.7802 63.5499 16.4415C62.0779 17.0815 60.3179 17.4015 58.2699 17.4015H51.5499L54.3659 14.7455V23.3535H48.0299ZM61.8859 23.3535L56.3179 15.1935H63.0699L68.6699 23.3535H61.8859ZM54.3659 15.4175L51.5499 12.5055H57.8859C59.2086 12.5055 60.1899 12.2175 60.8299 11.6415C61.4913 11.0655 61.8219 10.2655 61.8219 9.24152C61.8219 8.19618 61.4913 7.38552 60.8299 6.80951C60.1899 6.23351 59.2086 5.94551 57.8859 5.94551H51.5499L54.3659 3.03351V15.4175ZM80.1334 23.8015C78.3414 23.8015 76.6881 23.5135 75.1734 22.9375C73.6588 22.3615 72.3361 21.5508 71.2054 20.5055C70.0961 19.4388 69.2321 18.2015 68.6134 16.7935C67.9948 15.3855 67.6854 13.8388 67.6854 12.1535C67.6854 10.4682 67.9948 8.92151 68.6134 7.51351C69.2321 6.10551 70.0961 4.87885 71.2054 3.83352C72.3361 2.76685 73.6588 1.94551 75.1734 1.36951C76.6881 0.793514 78.3414 0.505514 80.1334 0.505514C81.9468 0.505514 83.6001 0.793514 85.0934 1.36951C86.6081 1.94551 87.9201 2.76685 89.0294 3.83352C90.1388 4.87885 91.0028 6.10551 91.6214 7.51351C92.2614 8.92151 92.5814 10.4682 92.5814 12.1535C92.5814 13.8388 92.2614 15.3962 91.6214 16.8255C91.0028 18.2335 90.1388 19.4602 89.0294 20.5055C87.9201 21.5508 86.6081 22.3615 85.0934 22.9375C83.6001 23.5135 81.9468 23.8015 80.1334 23.8015ZM80.1334 18.5535C80.9868 18.5535 81.7761 18.4042 82.5014 18.1055C83.2481 17.8068 83.8881 17.3802 84.4214 16.8255C84.9761 16.2495 85.4028 15.5668 85.7014 14.7775C86.0214 13.9882 86.1814 13.1135 86.1814 12.1535C86.1814 11.1722 86.0214 10.2975 85.7014 9.52952C85.4028 8.74018 84.9761 8.06818 84.4214 7.51351C83.8881 6.93751 83.2481 6.50018 82.5014 6.20152C81.7761 5.90285 80.9868 5.75352 80.1334 5.75352C79.2801 5.75352 78.4801 5.90285 77.7334 6.20152C77.0081 6.50018 76.3681 6.93751 75.8134 7.51351C75.2801 8.06818 74.8534 8.74018 74.5334 9.52952C74.2348 10.2975 74.0854 11.1722 74.0854 12.1535C74.0854 13.1135 74.2348 13.9882 74.5334 14.7775C74.8534 15.5668 75.2801 16.2495 75.8134 16.8255C76.3681 17.3802 77.0081 17.8068 77.7334 18.1055C78.4801 18.4042 79.2801 18.5535 80.1334 18.5535ZM89.9034 23.3535L99.6954 9.75352L99.6634 14.2655L90.2554 0.953514H97.3914L103.407 9.62551L100.367 9.65751L106.287 0.953514H113.135L103.727 14.0095V9.52952L113.647 23.3535H106.351L100.239 14.2335H103.151L97.1354 23.3535H89.9034ZM109.014 23.3535L118.902 0.953514H125.142L135.062 23.3535H128.47L120.726 4.05751H123.222L115.478 23.3535H109.014ZM114.422 19.0015L116.054 14.3295H126.998L128.63 19.0015H114.422ZM133.979 23.3535V0.953514H139.195L151.547 15.8655H149.083V0.953514H155.291V23.3535H150.075L137.723 8.44151H140.187V23.3535H133.979ZM154.192 23.3535L164.08 0.953514H170.32L180.24 23.3535H173.648L165.904 4.05751H168.4L160.656 23.3535H154.192ZM159.6 19.0015L161.232 14.3295H172.176L173.808 19.0015H159.6Z" fill="#0897FF"/>
</svg>
